<?xml version="1.0" encoding="UTF-8"?>
<svg width="272px" height="272px" viewBox="0 0 272 272" version="1.1" xmlns="http://www.w3.org/2000/svg" xmlns:xlink="http://www.w3.org/1999/xlink">
    <!-- Generator: Sketch 48.2 (47327) - http://www.bohemiancoding.com/sketch -->
    <title>uwa-no</title>
    <desc>Created with Sketch.</desc>
    <defs></defs>
    <g id="Not-found" stroke="none" stroke-width="1" fill="none" fill-rule="evenodd">
        <g id="uwa-no">
            <g id="usa" style="mix-blend-mode: soft-light;" transform="translate(86.000000, 45.000000)">
                <path d="M2.02,96.4129775 C3.45981221,89.5494239 19.8365861,86.1176471 51.1503218,86.1176471 C82.4640575,86.1176471 98.8408314,89.5494239 100.280644,96.4129775 L100.280644,171.329571 C94.2604758,178.686175 77.8837018,182.364477 51.1503218,182.364477 C24.4169418,182.364477 8.04016788,178.686175 2.02,171.329571 L2.02,96.4129775 Z" id="Rectangle" fill="#D5698A"></path>
                <path d="M91.3439357,0.830099395 C97.8273564,2.73856608 99.1548435,6.18089919 100.481665,13.1058697 C101.366212,17.7225168 97.7555862,43.1341231 89.6497867,89.3406888 L65.9866667,86.4417901 C70.4662124,36.9599331 74.1227356,10.2063028 76.9562361,6.18089919 C81.2064869,0.142793809 84.8605151,-1.07836729 91.3439357,0.830099395 Z" id="Triangle-Copy" fill="#D5698A"></path>
                <path d="M9.26827312,0.830099395 C15.7516938,-1.07836729 19.4057219,0.142793809 23.6559727,6.18089919 C26.4894733,10.2063028 30.1459964,36.9599331 34.6255422,86.4417901 L10.9624221,89.3406888 C2.85662259,43.1341231 -0.754003441,17.7225168 0.130544063,13.1058697 C1.45736532,6.18089919 2.78485248,2.73856608 9.26827312,0.830099395 Z" id="Triangle-Copy" fill="#D5698A"></path>
                <path d="M15.9836558,44.1379665 C19.1574088,43.2037371 20.9461223,43.8015178 23.0266978,46.7572808 C24.4137481,48.7277895 26.2036831,61.8241806 28.3965026,86.0464543 L16.8129727,87.4655182 C12.8450357,64.8465595 11.0775682,52.4071136 11.5105704,50.1471805 C12.1600736,46.7572808 12.8099029,45.0721958 15.9836558,44.1379665 Z" id="Triangle-Copy" fill="#FFFFFF"></path>
                <path d="M83.7861801,44.1379665 C86.9599331,45.0721958 87.6097623,46.7572808 88.2592656,50.1471805 C88.6922678,52.4071136 86.9248003,64.8465595 82.9568632,87.4655182 L71.3733333,86.0464543 C73.5661529,61.8241806 75.3560878,48.7277895 76.7431381,46.7572808 C78.8237136,43.8015178 80.6124272,43.2037371 83.7861801,44.1379665 Z" id="Triangle-Copy-2" fill="#FFFFFF"></path>
                <path d="M50.4881492,101.221636 C71.3064212,101.221636 88.1829651,99.4049026 88.1829651,96.1136862 C88.1829651,92.8224698 71.3064212,90.1544118 50.4881492,90.1544118 C29.6698773,90.1544118 12.7933333,92.8224698 12.7933333,96.1136862 C12.7933333,99.4049026 29.6698773,101.221636 50.4881492,101.221636 Z" id="Oval" fill="#C9C9C9"></path>
                <polygon id="Rectangle-3" fill="#000000" points="12.5780727 146.669118 36.6919024 151.379891 35.5604964 157.229677 11.4466667 152.518903"></polygon>
                <polygon id="Rectangle-3-Copy" fill="#000000" points="45.7331371 152.051471 70.1637275 154.632113 69.5439237 160.558742 45.1133333 157.9781"></polygon>
            </g>
            <rect id="Rectangle" fill="#FFFFFF" style="mix-blend-mode: color-dodge;" x="0" y="0" width="272" height="272"></rect>
            <rect id="Rectangle" fill="#000000" opacity="0.231600996" x="0" y="0" width="272" height="272"></rect>
            <path d="M-5.0941976,-5.0941976 L293.527396,293.527396" id="Line" stroke="#979797" stroke-width="9" stroke-linecap="square"></path>
        </g>
    </g>
</svg>