<?xml version="1.0" encoding="UTF-8"?>
<svg width="150px" height="272px" viewBox="0 0 150 272" version="1.1" xmlns="http://www.w3.org/2000/svg" xmlns:xlink="http://www.w3.org/1999/xlink">
    <!-- Generator: Sketch 48.2 (47327) - http://www.bohemiancoding.com/sketch -->
    <title>uwa</title>
    <desc>Created with Sketch.</desc>
    <defs></defs>
    <g id="Not-found" stroke="none" stroke-width="1" fill="none" fill-rule="evenodd">
        <g id="uwa">
            <g id="usa">
                <path d="M3,143.302349 C5.13833496,133.100783 29.4602765,128 75.9658245,128 C122.471373,128 146.793314,133.100783 148.931649,143.302349 L148.931649,254.653788 C139.990806,265.588194 115.668864,271.055397 75.9658245,271.055397 C36.2627849,271.055397 11.9408434,265.588194 3,254.653788 L3,143.302349 Z" id="Rectangle" fill="#D5698A"></path>
                <path d="M135.65931,1.23380894 C145.288153,4.07043702 147.259669,9.18691027 149.230195,19.4797627 C150.54388,26.3416643 145.181564,64.1119207 133.143248,132.790532 L98,128.481786 C104.652791,54.9349825 110.083271,15.1700238 114.29144,9.18691027 C120.603693,0.212239979 126.030468,-1.60281915 135.65931,1.23380894 Z" id="Triangle-Copy" fill="#D5698A"></path>
                <path d="M13.7647621,1.23380894 C23.3936046,-1.60281915 28.8203791,0.212239979 35.1326328,9.18691027 C39.3408019,15.1700238 44.7712818,54.9349825 51.4240725,128.481786 L16.280825,132.790532 C4.24250879,64.1119207 -1.11980709,26.3416643 0.193877321,19.4797627 C2.16440394,9.18691027 4.13591952,4.07043702 13.7647621,1.23380894 Z" id="Triangle-Copy" fill="#D5698A"></path>
                <path d="M23.7381027,65.603972 C28.4515972,64.2153907 31.1081025,65.1038953 34.1980661,69.4971605 C36.2580418,72.426004 38.916361,91.8916783 42.1730237,127.894183 L24.9697615,130.003393 C19.0767856,96.3839573 16.451834,77.8947263 17.0949065,74.5357 C18.0595153,69.4971605 19.0246082,66.9925533 23.7381027,65.603972 Z" id="Triangle-Copy" fill="#FFFFFF"></path>
                <path d="M124.434921,65.603972 C129.148415,66.9925533 130.113508,69.4971605 131.078117,74.5357 C131.72119,77.8947263 129.096238,96.3839573 123.203262,130.003393 L106,127.894183 C109.256663,91.8916783 111.914982,72.426004 113.974958,69.4971605 C117.064921,65.1038953 119.721427,64.2153907 124.434921,65.603972 Z" id="Triangle-Copy-2" fill="#FFFFFF"></path>
                <path d="M74.9823998,150.449644 C105.900626,150.449644 130.9648,147.749363 130.9648,142.857501 C130.9648,137.965638 105.900626,134 74.9823998,134 C44.0641741,134 19,137.965638 19,142.857501 C19,147.749363 44.0641741,150.449644 74.9823998,150.449644 Z" id="Oval" fill="#C9C9C9"></path>
                <polygon id="Rectangle-3" fill="#000000" points="18.680306 218 54.4929244 225.001805 52.8126184 233.696568 17 226.694764"></polygon>
                <polygon id="Rectangle-3-Copy" fill="#000000" points="67.9205007 226 104.203556 229.83571 103.283055 238.644688 67 234.808979"></polygon>
            </g>
        </g>
    </g>
</svg>